<svg width="91" height="70" viewBox="0 0 91 70" fill="none" xmlns="http://www.w3.org/2000/svg">
<path fill-rule="evenodd" clip-rule="evenodd" d="M24.7194 1.70753C22.2889 4.39021 22.2853 11.2181 24.7131 12.9925C27.1156 14.747 28.4476 14.6001 30.548 12.3472C33.0109 9.70602 33.7081 5.83653 32.2642 2.81412C30.713 -0.435377 27.1345 -0.959838 24.7194 1.70753ZM10.4008 3.97208C7.47248 6.89897 10.1032 15.1633 14.3978 16.5249C16.8724 17.3098 19.8061 14.7659 19.8061 11.8336C19.8061 7.60997 15.9435 2.5564 12.7149 2.5564C12.2216 2.5564 11.1809 3.1935 10.4008 3.97208ZM36.0619 11.5452C32.11 15.494 33.2878 22.5634 37.9882 23.1086C42.6327 23.6475 45.3734 14.665 41.6046 11.2569C39.4546 9.31222 38.2335 9.3753 36.0619 11.5452ZM1.04774 16.2537C-0.806455 18.1064 -0.145403 21.5073 2.60162 24.2531C7.72049 29.3679 14.2048 26.6474 11.6408 20.4611C9.71898 15.8265 3.82001 13.4836 1.04774 16.2537ZM20.6836 20.3259C19.4571 21.1784 17.7526 22.6986 16.8959 23.7052C14.4582 26.5699 11.6895 34.6747 11.6895 38.947C11.6895 45.4172 15.3609 47.2212 22.9626 44.4854C24.9466 43.7708 28.8128 43.1688 31.5545 43.1472C39.993 43.0805 42.2467 39.9193 39.1543 32.4904C34.5801 21.5019 26.5772 16.2311 20.6836 20.3259ZM64.9281 24.5991C63.0198 26.8961 62.6997 32.9094 64.3519 35.429C66.271 38.3559 68.7916 38.3171 71.1455 35.3262C73.3622 32.5111 73.5678 28.0757 71.6108 25.2858C70.0109 23.0032 66.5487 22.6472 64.9281 24.5991ZM79.5236 29.1949C74.5644 32.6652 73.63 39.8454 77.9959 40.9403C81.0225 41.6991 84.5496 39.2759 86.2153 35.2929C87.3949 32.4705 87.3841 31.8857 86.1188 29.9555C84.4738 27.4476 82.3671 27.2043 79.5236 29.1949ZM52.1174 29.6229C48.2647 31.8695 49.8736 40.2518 54.5668 42.3884C56.375 43.2112 57.1019 43.0976 58.5819 41.7594C61.3487 39.257 60.9744 34.5422 57.7531 31.3234C54.8852 28.4578 54.3784 28.3055 52.1174 29.6229ZM62.5851 43.8663C58.0083 45.9975 52.5927 50.6888 50.8738 54.0104C48.005 59.5533 49.9205 63.1759 56.3308 64.332C58.3149 64.6898 62.2605 66.1433 65.0977 67.5617C74.972 72.4981 78.0058 70.2408 77.9309 58.0141C77.8867 50.7366 76.6016 46.6085 73.6057 44.1249C71.2438 42.1659 66.4757 42.0541 62.5851 43.8663ZM82.9813 44.6845C79.6003 47.8025 78.6632 51.3259 80.6798 53.3409C82.8739 55.5333 85.4523 55.1494 88.4158 52.1883C91.3423 49.2641 91.832 45.8182 89.6351 43.6221C87.6168 41.6063 86.0493 41.8559 82.9813 44.6845Z" fill="white"/>
</svg>
