<svg width="71" height="70" viewBox="0 0 71 70" fill="none" xmlns="http://www.w3.org/2000/svg">
<path fill-rule="evenodd" clip-rule="evenodd" d="M14.9588 1.10333C10.7005 2.96205 8.21479 6.69226 8.21479 11.2247C8.21479 14.9321 8.07564 15.1281 5.04243 15.6987C3.298 16.0269 1.45624 17.0707 0.949649 18.0187C-0.644716 21.0051 -0.155402 26.9705 1.84824 28.9787C3.59813 30.7326 4.87963 30.8019 35.5 30.8019C66.1204 30.8019 67.4019 30.7326 69.1518 28.9787C71.1554 26.9705 71.6447 21.0051 70.0503 18.0187C69.5438 17.0707 67.702 16.0269 65.9576 15.6987C62.8934 15.1226 62.7852 14.9622 62.7852 11.0104C62.7852 7.59108 62.2886 6.4206 59.7647 3.89095C54.0867 -1.80007 45.3791 -1.19295 38.8524 5.34949L35.3381 8.87094L32.9561 6.03318C28.4377 0.652094 20.7933 -1.44182 14.9588 1.10333ZM24.5823 8.92199C25.5154 9.42245 27.1535 11.0633 28.223 12.5683L30.1667 15.3049H23.3008C16.726 15.3049 16.4104 15.2074 15.861 13.0141C15.5327 11.7005 15.7664 10.1453 16.4104 9.36776C17.6937 7.81715 22.0775 7.57832 24.5823 8.92199ZM54.5896 9.36776C55.2336 10.1453 55.4673 11.7005 55.139 13.0141C54.5896 15.2074 54.274 15.3049 47.6992 15.3049H40.8333L42.7633 12.5875C43.8256 11.0934 45.3882 9.4653 46.2358 8.96939C48.5623 7.60931 53.3218 7.83629 54.5896 9.36776ZM5.48627 52.648C5.48627 67.0045 5.61269 68.1805 7.24526 69.0565C8.21297 69.5752 14.1475 70 20.4331 70H31.862V53.5915V37.1829H18.6741H5.48627V52.648ZM39.138 53.5915V70H50.5669C56.8525 70 62.787 69.5752 63.7547 69.0565C65.3873 68.1805 65.5137 67.0045 65.5137 52.648V37.1829H52.3259H39.138V53.5915Z" fill="white"/>
</svg>
