<svg width="80" height="70" viewBox="0 0 80 70" fill="none" xmlns="http://www.w3.org/2000/svg">
<path fill-rule="evenodd" clip-rule="evenodd" d="M10.733 10.789C4.83 16.7237 0 21.9718 0 22.4519C0 22.9329 1.8 25.2829 4 27.675C6.2 30.0671 8 32.7358 8 33.6056C8 35.0407 8.207 35.0427 10.223 33.6287C13.527 31.3087 17.714 31.6906 20.591 34.5737C22.154 36.14 24.223 37.079 26.111 37.079C27.772 37.079 29.94 37.513 30.929 38.0431C33.184 39.2527 35.431 44.5289 34.607 46.6815C34.212 47.7137 34.857 48.9904 36.38 50.192C37.698 51.2302 39.059 53.2134 39.407 54.6004C39.754 55.9874 40.689 57.1218 41.484 57.1218C42.28 57.1218 44.506 58.5077 46.431 60.2023C53.362 66.3003 58.146 61.5723 51.539 55.1556C47.695 51.4216 46.879 48.1025 49.804 48.1025C50.796 48.1025 53.151 49.6989 55.038 51.6491C61.743 58.5819 66.046 53.491 59.56 46.2977C57.602 44.1251 56 41.8652 56 41.276C56 38.5782 58.459 39.2517 62.611 43.0869C65.397 45.6613 67.714 47.0403 68.648 46.6815C69.482 46.3608 70.352 46.0983 70.582 46.0983C70.812 46.0983 71 45.0711 71 43.8164C71 42.3222 68.576 39.1244 63.973 34.5466L56.945 27.5587L51.207 27.8874C46.533 28.156 44.963 27.8183 42.738 26.0636L40.006 23.911L37.099 25.9854C33.177 28.7834 26.186 28.7824 22.635 25.9824C18.214 22.498 18.957 18.0214 25.026 11.5907L30.051 6.26536L26.491 3.13268C24.533 1.41001 22.601 0 22.198 0C21.795 0 16.636 4.85535 10.733 10.789ZM52.765 3.53454C49.345 6.72033 48.511 7.01495 42.905 7.01495H36.781L30.14 13.5529L23.5 20.0898L25.861 22.0711C28.831 24.5624 30.718 24.5574 34.5 22.047C38.014 19.715 41.512 19.5477 45 21.5459C48.238 23.4009 52.116 23.4229 54.559 21.601C56.359 20.2572 57.105 20.7492 64.827 28.3655C70.654 34.1117 73.096 35.9757 72.962 34.5737C72.634 31.1584 72.897 30.5682 76.5 26.6268C78.425 24.5203 80 22.508 80 22.1542C80 21.0849 58.542 -0.00200432 57.484 0.0270576C56.943 0.0420897 54.819 1.62045 52.765 3.53454ZM10.432 39.7247C4.161 46.3889 8.079 51.3334 14.606 44.9939C18.466 41.2439 18.916 38.6434 15.977 37.067C14.253 36.142 13.435 36.5339 10.432 39.7247ZM20.486 46.2005C14.975 51.4236 13.976 53.6905 16.2 55.9192C18.069 57.7922 18.754 57.4685 24.56 51.9658C30.337 46.4901 31.257 43.8364 27.986 42.0817C26.252 41.1527 25.205 41.727 20.486 46.2005ZM26.475 57.1478C23.254 60.4539 22.739 61.4951 23.629 62.9101C25.297 65.5648 27.438 65.4826 30.813 62.6375C34.462 59.56 35.625 56.5786 33.96 54.5683C32.094 52.3155 30.723 52.7875 26.475 57.1478ZM37.165 62.7307C35.574 63.8471 34.979 65.1308 35.193 66.9808C35.57 70.2327 38.402 71.0024 41.074 68.5792C43.267 66.59 43.557 64.0936 41.8 62.3329C40.253 60.7826 39.898 60.8126 37.165 62.7307Z" fill="white"/>
</svg>
