<svg width="70" height="70" viewBox="0 0 70 70" fill="none" xmlns="http://www.w3.org/2000/svg">
<path fill-rule="evenodd" clip-rule="evenodd" d="M20.1674 1.45502C15.9181 3.54671 13.9225 7.29596 13.919 13.1983C13.9164 17.2194 14.3729 18.7411 16.4396 21.5905C19.2306 25.4388 32.3384 37.661 34.9819 38.8792C36.3436 39.5071 38.038 38.4582 43.9449 33.3311C52.7771 25.6651 56.6321 20.9976 57.8437 16.5029C59.7348 9.48939 55.274 1.58745 48.7324 0.361378C44.563 -0.419168 41.8914 0.307003 38.5236 3.13802L35.78 5.44458L33.8467 3.68616C29.4034 -0.353392 25.227 -1.03484 20.1674 1.45502ZM20.0612 41.405L16.9883 42.4907L16.746 55.3241C16.5274 66.9087 16.6556 68.226 18.0629 68.8574C18.9207 69.2424 26.536 69.7029 34.9863 69.8809C48.4646 70.1642 50.7279 70.0107 53.4232 68.6259C56.8139 66.8841 68.9111 52.501 69.8014 49.1517C70.5503 46.3373 69.1447 44.3079 66.2053 43.9597C64.2756 43.7308 63.1729 44.4228 60.6154 47.4678C58.8639 49.5542 55.9825 52.7413 54.2134 54.5497L50.9957 57.8385H41.2873C31.4613 57.8385 29.4543 57.201 31.5061 54.7304C32.2769 53.8034 34.5324 53.4535 39.7465 53.4535C47.3153 53.4535 49.0335 52.7229 49.0335 49.5069C49.0335 46.5127 47.2539 45.5603 41.6622 45.5603C37.506 45.5603 35.7405 45.1069 33.2778 43.4081C29.4456 40.7648 24.1454 39.9614 20.0612 41.405ZM0.255502 42.3101C0.0158222 42.9345 -0.0710948 49.3473 0.0632315 56.5616L0.307301 69.6783L4.43103 69.944C7.6531 70.151 8.94983 69.8151 10.3572 68.4093C11.9814 66.7868 12.1596 65.5326 12.1596 55.71C12.1596 44.9797 12.1236 44.7824 9.84622 42.9933C7.21501 40.9252 0.957862 40.4797 0.255502 42.3101Z" fill="white"/>
</svg>
