<svg width="207" height="73" viewBox="0 0 207 73" fill="none" xmlns="http://www.w3.org/2000/svg">
<path fill-rule="evenodd" clip-rule="evenodd" d="M68.6774 0.757709C67.9171 1.16439 64.2881 3.92333 60.6128 6.88877C56.0307 10.5853 53.734 12.2005 53.3058 12.0265C52.9622 11.8868 50.9924 11.4077 48.9287 10.9623C44.345 9.9721 35.5596 9.88507 31.5498 10.7902C29.2617 11.3065 28.945 11.3037 28.6365 10.7649C27.8481 9.38819 25.517 7.14275 24.2511 6.54103C21.9148 5.43058 18.8593 5.05713 15.8855 5.5184C6.44561 6.98292 -0.59323 16.043 0.0395194 25.9149C0.365374 31.004 2.37777 33.2996 6.72842 33.5457L9.36211 33.6949L9.15317 38.1027C8.88853 43.6755 9.3866 46.3807 11.448 50.5764C14.5805 56.9516 20.5079 61.6953 33.9517 68.5863L40.8317 72.1127L48.7312 68.1135C53.0759 65.9136 58.0329 63.1879 59.7463 62.0557C65.9837 57.9354 71.0982 52.0014 72.8424 46.8613L73.6055 44.6135L74.9923 44.854C79.2643 45.5946 79.7367 45.6037 79.7367 44.9454C79.7367 44.5937 79.337 44.2147 78.848 44.1036C73.7292 42.9393 73.8121 42.946 73.8121 43.6973C73.8121 44.4398 73.2836 44.4371 68.8749 43.6692C65.1985 43.0287 64.2699 42.6129 64.9643 41.9175C65.2273 41.654 66.7369 41.7707 69.4867 42.2668C71.7571 42.6766 73.6885 42.9437 73.7785 42.8606C74.0092 42.6477 74.6404 37.8673 74.4611 37.6881C74.3805 37.607 72.4301 37.8348 70.127 38.194C67.8239 38.5533 65.6227 38.7242 65.2348 38.5738C63.8903 38.0516 65.7064 37.3091 69.5646 36.8031C74.8687 36.1076 74.6175 36.2501 74.3635 34.0806C73.9586 30.6178 73.3338 27.8799 72.4455 25.6752L71.5596 23.4768L72.2725 19.1477C73.066 14.3265 73.2351 5.93774 72.5948 3.15388C72.1769 1.33885 71.2641 -0.0307284 70.4923 0.000524271C70.2546 0.0104144 69.4378 0.351029 68.6774 0.757709ZM40.3467 20.6534C40.6477 32.0713 40.9087 32.5891 48.3177 36.4593C54.0176 39.4366 55.9747 41.0962 57.271 44.0506C59.2194 48.4916 58.1162 53.9185 54.4564 57.8951C52.4542 60.0709 47.613 63.2385 43.0945 65.3293C39.1361 67.1609 39.533 67.2258 31.6624 63.466C25.3175 60.4349 21.3006 57.7119 18.0259 54.2211C13.7131 49.6246 12.1917 45.6903 12.2024 39.1637C12.2103 34.1799 12.8877 31.616 15.0545 28.3629C16.0348 26.8917 17.8639 23.3312 19.1192 20.4508C21.8271 14.2383 22.3102 13.4336 23.3304 13.4336C23.9671 13.4336 24.082 13.6623 23.9762 14.7193C23.8608 15.8733 23.9489 15.9991 24.8352 15.9481C25.3783 15.9168 27.0424 15.4227 28.5334 14.8507C31.6462 13.6556 34.2759 13.15 37.7237 13.0843L40.1456 13.038L40.3467 20.6534ZM25.7852 26.5301C25.2275 27.1472 25.0327 27.9562 25.0327 29.6534C25.0327 32.2303 25.8764 33.6094 27.4535 33.6094C29.4525 33.6094 30.3665 28.7902 28.7562 26.7397C27.7679 25.4813 26.7951 25.4125 25.7852 26.5301ZM54.6953 26.3956C55.4565 26.9047 56.0382 28.3712 56.0382 29.7811C56.0382 33.0014 52.9373 33.9338 52.1173 30.96C51.3365 28.1263 52.9669 25.2396 54.6953 26.3956ZM36.0261 35.9988C34.1231 36.5851 32.6072 38.6023 32.8663 40.2029C33.1712 42.0836 34.2329 43.3274 36.5996 44.5747C38.4528 45.5519 38.6598 45.7861 38.4465 46.6643C37.6696 49.8592 32.5025 51.6734 28.9667 49.9929C27.3414 49.2203 26.5933 48.1217 26.1442 45.8482C25.5419 42.7965 23.1282 43.4742 23.5417 46.5789C24.0943 50.7311 27.4429 53.3638 32.1928 53.3809C34.9632 53.3908 36.8693 52.7107 38.7806 51.0298L40.1164 49.8552L41.2326 51.0219C43.8308 53.7381 49.0077 54.1883 52.1892 51.9741C54.9284 50.0681 56.6114 45.5879 55.0698 44.3065C53.9283 43.3575 53.0898 43.9829 52.863 45.9522C52.6233 48.0335 51.7018 49.2879 49.83 50.0815C46.4562 51.512 41.8721 49.5633 41.3566 46.4804C41.2603 45.9028 41.6339 45.5107 42.8066 44.9581C46.2741 43.3246 47.9164 40.6037 46.7721 38.3875C46.4305 37.7253 45.5758 36.8818 44.8735 36.5135C43.3765 35.7286 37.9306 35.4118 36.0261 35.9988ZM76.4782 35.8782C74.9165 36.0016 74.6021 36.1587 74.6021 36.8154C74.6021 37.5484 74.7774 37.5856 77.0706 37.3352C78.4286 37.1872 79.6648 36.9946 79.8181 36.9075C80.332 36.6156 79.6605 35.5866 79.0033 35.6586C78.6462 35.6978 77.5103 35.7967 76.4782 35.8782Z" fill="black"/>
<path d="M101.916 32.276H94.132L92.844 36H88.728L95.756 16.428H100.32L107.348 36H103.204L101.916 32.276ZM100.852 29.14L98.024 20.964L95.196 29.14H100.852ZM129.239 20.264C131.143 20.264 132.674 20.852 133.831 22.028C135.007 23.1853 135.595 24.8093 135.595 26.9V36H131.675V27.432C131.675 26.2187 131.367 25.2947 130.751 24.66C130.135 24.0067 129.295 23.68 128.231 23.68C127.167 23.68 126.318 24.0067 125.683 24.66C125.067 25.2947 124.759 26.2187 124.759 27.432V36H120.839V27.432C120.839 26.2187 120.531 25.2947 119.915 24.66C119.299 24.0067 118.459 23.68 117.395 23.68C116.312 23.68 115.454 24.0067 114.819 24.66C114.203 25.2947 113.895 26.2187 113.895 27.432V36H109.975V20.488H113.895V22.364C114.399 21.7107 115.043 21.1973 115.827 20.824C116.63 20.4507 117.507 20.264 118.459 20.264C119.672 20.264 120.755 20.5253 121.707 21.048C122.659 21.552 123.396 22.28 123.919 23.232C124.423 22.336 125.151 21.6173 126.103 21.076C127.074 20.5347 128.119 20.264 129.239 20.264ZM141.303 18.64C140.612 18.64 140.033 18.4253 139.567 17.996C139.119 17.548 138.895 16.9973 138.895 16.344C138.895 15.6907 139.119 15.1493 139.567 14.72C140.033 14.272 140.612 14.048 141.303 14.048C141.993 14.048 142.563 14.272 143.011 14.72C143.477 15.1493 143.711 15.6907 143.711 16.344C143.711 16.9973 143.477 17.548 143.011 17.996C142.563 18.4253 141.993 18.64 141.303 18.64ZM143.235 20.488V36H139.315V20.488H143.235ZM153.184 20.236C154.341 20.236 155.358 20.4693 156.236 20.936C157.113 21.384 157.804 21.972 158.308 22.7V20.488H162.256V36.112C162.256 37.5493 161.966 38.828 161.388 39.948C160.809 41.0867 159.941 41.9827 158.784 42.636C157.626 43.308 156.226 43.644 154.584 43.644C152.381 43.644 150.57 43.1307 149.152 42.104C147.752 41.0773 146.958 39.6773 146.772 37.904H150.664C150.869 38.6133 151.308 39.1733 151.98 39.584C152.67 40.0133 153.501 40.228 154.472 40.228C155.61 40.228 156.534 39.8827 157.244 39.192C157.953 38.52 158.308 37.4933 158.308 36.112V33.704C157.804 34.432 157.104 35.0387 156.208 35.524C155.33 36.0093 154.322 36.252 153.184 36.252C151.877 36.252 150.682 35.916 149.6 35.244C148.517 34.572 147.658 33.6293 147.024 32.416C146.408 31.184 146.1 29.7747 146.1 28.188C146.1 26.62 146.408 25.2293 147.024 24.016C147.658 22.8027 148.508 21.8693 149.572 21.216C150.654 20.5627 151.858 20.236 153.184 20.236ZM158.308 28.244C158.308 27.292 158.121 26.48 157.748 25.808C157.374 25.1173 156.87 24.5947 156.236 24.24C155.601 23.8667 154.92 23.68 154.192 23.68C153.464 23.68 152.792 23.8573 152.176 24.212C151.56 24.5667 151.056 25.0893 150.664 25.78C150.29 26.452 150.104 27.2547 150.104 28.188C150.104 29.1213 150.29 29.9427 150.664 30.652C151.056 31.3427 151.56 31.8747 152.176 32.248C152.81 32.6213 153.482 32.808 154.192 32.808C154.92 32.808 155.601 32.6307 156.236 32.276C156.87 31.9027 157.374 31.38 157.748 30.708C158.121 30.0173 158.308 29.196 158.308 28.244ZM172.972 36.252C171.479 36.252 170.135 35.9253 168.94 35.272C167.746 34.6 166.803 33.6573 166.112 32.444C165.44 31.2307 165.104 29.8307 165.104 28.244C165.104 26.6573 165.45 25.2573 166.14 24.044C166.85 22.8307 167.811 21.8973 169.024 21.244C170.238 20.572 171.591 20.236 173.084 20.236C174.578 20.236 175.931 20.572 177.144 21.244C178.358 21.8973 179.31 22.8307 180 24.044C180.71 25.2573 181.064 26.6573 181.064 28.244C181.064 29.8307 180.7 31.2307 179.972 32.444C179.263 33.6573 178.292 34.6 177.06 35.272C175.847 35.9253 174.484 36.252 172.972 36.252ZM172.972 32.836C173.682 32.836 174.344 32.668 174.96 32.332C175.595 31.9773 176.099 31.4547 176.472 30.764C176.846 30.0733 177.032 29.2333 177.032 28.244C177.032 26.7693 176.64 25.64 175.856 24.856C175.091 24.0533 174.148 23.652 173.028 23.652C171.908 23.652 170.966 24.0533 170.2 24.856C169.454 25.64 169.08 26.7693 169.08 28.244C169.08 29.7187 169.444 30.8573 170.172 31.66C170.919 32.444 171.852 32.836 172.972 32.836ZM88.924 53.188C88.924 51.62 89.232 50.2293 89.848 49.016C90.4827 47.8027 91.3413 46.8693 92.424 46.216C93.5067 45.5627 94.7107 45.236 96.036 45.236C97.044 45.236 98.0053 45.46 98.92 45.908C99.8347 46.3373 100.563 46.916 101.104 47.644V40.28H105.08V61H101.104V58.704C100.619 59.4693 99.9373 60.0853 99.06 60.552C98.1827 61.0187 97.1653 61.252 96.008 61.252C94.7013 61.252 93.5067 60.916 92.424 60.244C91.3413 59.572 90.4827 58.6293 89.848 57.416C89.232 56.184 88.924 54.7747 88.924 53.188ZM101.132 53.244C101.132 52.292 100.945 51.48 100.572 50.808C100.199 50.1173 99.6947 49.5947 99.06 49.24C98.4253 48.8667 97.744 48.68 97.016 48.68C96.288 48.68 95.616 48.8573 95 49.212C94.384 49.5667 93.88 50.0893 93.488 50.78C93.1147 51.452 92.928 52.2547 92.928 53.188C92.928 54.1213 93.1147 54.9427 93.488 55.652C93.88 56.3427 94.384 56.8747 95 57.248C95.6347 57.6213 96.3067 57.808 97.016 57.808C97.744 57.808 98.4253 57.6307 99.06 57.276C99.6947 56.9027 100.199 56.38 100.572 55.708C100.945 55.0173 101.132 54.196 101.132 53.244ZM115.797 61.252C114.303 61.252 112.959 60.9253 111.765 60.272C110.57 59.6 109.627 58.6573 108.937 57.444C108.265 56.2307 107.929 54.8307 107.929 53.244C107.929 51.6573 108.274 50.2573 108.965 49.044C109.674 47.8307 110.635 46.8973 111.849 46.244C113.062 45.572 114.415 45.236 115.909 45.236C117.402 45.236 118.755 45.572 119.969 46.244C121.182 46.8973 122.134 47.8307 122.825 49.044C123.534 50.2573 123.889 51.6573 123.889 53.244C123.889 54.8307 123.525 56.2307 122.797 57.444C122.087 58.6573 121.117 59.6 119.885 60.272C118.671 60.9253 117.309 61.252 115.797 61.252ZM115.797 57.836C116.506 57.836 117.169 57.668 117.785 57.332C118.419 56.9773 118.923 56.4547 119.297 55.764C119.67 55.0733 119.857 54.2333 119.857 53.244C119.857 51.7693 119.465 50.64 118.681 49.856C117.915 49.0533 116.973 48.652 115.853 48.652C114.733 48.652 113.79 49.0533 113.025 49.856C112.278 50.64 111.905 51.7693 111.905 53.244C111.905 54.7187 112.269 55.8573 112.997 56.66C113.743 57.444 114.677 57.836 115.797 57.836ZM132.484 51.2C132.484 49.2773 132.913 47.56 133.772 46.048C134.649 44.5173 135.835 43.332 137.328 42.492C138.84 41.6333 140.529 41.204 142.396 41.204C144.58 41.204 146.493 41.764 148.136 42.884C149.779 44.004 150.927 45.5533 151.58 47.532H147.072C146.624 46.5987 145.989 45.8987 145.168 45.432C144.365 44.9653 143.432 44.732 142.368 44.732C141.229 44.732 140.212 45.0027 139.316 45.544C138.439 46.0667 137.748 46.8133 137.244 47.784C136.759 48.7547 136.516 49.8933 136.516 51.2C136.516 52.488 136.759 53.6267 137.244 54.616C137.748 55.5867 138.439 56.3427 139.316 56.884C140.212 57.4067 141.229 57.668 142.368 57.668C143.432 57.668 144.365 57.4347 145.168 56.968C145.989 56.4827 146.624 55.7733 147.072 54.84H151.58C150.927 56.8373 149.779 58.396 148.136 59.516C146.512 60.6173 144.599 61.168 142.396 61.168C140.529 61.168 138.84 60.748 137.328 59.908C135.835 59.0493 134.649 57.864 133.772 56.352C132.913 54.84 132.484 53.1227 132.484 51.2ZM153.92 53.188C153.92 51.62 154.228 50.2293 154.844 49.016C155.479 47.8027 156.328 46.8693 157.392 46.216C158.475 45.5627 159.679 45.236 161.004 45.236C162.161 45.236 163.169 45.4693 164.028 45.936C164.905 46.4027 165.605 46.9907 166.128 47.7V45.488H170.076V61H166.128V58.732C165.624 59.46 164.924 60.0667 164.028 60.552C163.151 61.0187 162.133 61.252 160.976 61.252C159.669 61.252 158.475 60.916 157.392 60.244C156.328 59.572 155.479 58.6293 154.844 57.416C154.228 56.184 153.92 54.7747 153.92 53.188ZM166.128 53.244C166.128 52.292 165.941 51.48 165.568 50.808C165.195 50.1173 164.691 49.5947 164.056 49.24C163.421 48.8667 162.74 48.68 162.012 48.68C161.284 48.68 160.612 48.8573 159.996 49.212C159.38 49.5667 158.876 50.0893 158.484 50.78C158.111 51.452 157.924 52.2547 157.924 53.188C157.924 54.1213 158.111 54.9427 158.484 55.652C158.876 56.3427 159.38 56.8747 159.996 57.248C160.631 57.6213 161.303 57.808 162.012 57.808C162.74 57.808 163.421 57.6307 164.056 57.276C164.691 56.9027 165.195 56.38 165.568 55.708C165.941 55.0173 166.128 54.196 166.128 53.244ZM182.501 45.264C184.349 45.264 185.842 45.852 186.981 47.028C188.119 48.1853 188.689 49.8093 188.689 51.9V61H184.769V52.432C184.769 51.2 184.461 50.2573 183.845 49.604C183.229 48.932 182.389 48.596 181.325 48.596C180.242 48.596 179.383 48.932 178.749 49.604C178.133 50.2573 177.825 51.2 177.825 52.432V61H173.905V45.488H177.825V47.42C178.347 46.748 179.01 46.2253 179.813 45.852C180.634 45.46 181.53 45.264 182.501 45.264ZM194.404 43.64C193.714 43.64 193.135 43.4253 192.668 42.996C192.22 42.548 191.996 41.9973 191.996 41.344C191.996 40.6907 192.22 40.1493 192.668 39.72C193.135 39.272 193.714 39.048 194.404 39.048C195.095 39.048 195.664 39.272 196.112 39.72C196.579 40.1493 196.812 40.6907 196.812 41.344C196.812 41.9973 196.579 42.548 196.112 42.996C195.664 43.4253 195.095 43.64 194.404 43.64ZM196.336 45.488V61H192.416V45.488H196.336ZM204.129 40.28V61H200.209V40.28H204.129Z" fill="black"/>
</svg>
