<svg width="45" height="41" viewBox="0 0 45 41" fill="none" xmlns="http://www.w3.org/2000/svg">
<path fill-rule="evenodd" clip-rule="evenodd" d="M38.6311 0.426211C38.2034 0.654969 36.162 2.20687 34.0947 3.87493C31.5173 5.95422 30.2254 6.8628 29.9845 6.76489C29.7912 6.68634 28.6833 6.41686 27.5224 6.16629C24.9441 5.60931 20.0023 5.56035 17.7468 6.06949C16.4597 6.35989 16.2815 6.35833 16.108 6.05525C15.6646 5.28086 14.3533 4.01779 13.6412 3.67933C12.3271 3.0547 10.6083 2.84463 8.9356 3.1041C3.62566 3.92789 -0.333692 9.0242 0.0222297 14.5771C0.205523 17.4397 1.3375 18.731 3.78473 18.8695L5.26619 18.9534L5.14866 21.4327C4.9998 24.5675 5.27996 26.0891 6.43948 28.4492C8.20154 32.0353 11.5357 34.7036 19.0978 38.5798L22.9678 40.5634L27.4113 38.3139C29.8552 37.0764 32.6435 35.5432 33.6073 34.9063C37.1158 32.5887 39.9928 29.2508 40.9739 26.3595L41.4031 25.0951L42.1832 25.2304C44.5862 25.647 44.8519 25.6521 44.8519 25.2818C44.8519 25.084 44.6271 24.8708 44.352 24.8083C41.4727 24.1534 41.5193 24.1571 41.5193 24.5797C41.5193 24.9974 41.222 24.9958 38.7421 24.5639C36.6742 24.2037 36.1518 23.9698 36.5424 23.5786C36.6904 23.4304 37.5395 23.496 39.0863 23.7751C40.3633 24.0056 41.4498 24.1558 41.5004 24.1091C41.6302 23.9894 41.9852 21.3003 41.8843 21.1995C41.839 21.1539 40.7419 21.2821 39.4464 21.4841C38.1509 21.6862 36.9128 21.7823 36.6946 21.6978C35.9383 21.404 36.9599 20.9864 39.1301 20.7017C42.1136 20.3105 41.9723 20.3907 41.8295 19.1703C41.6017 17.2225 41.2503 15.6824 40.7506 14.4423L40.2523 13.2057L40.6533 10.7706C41.0996 8.05866 41.1947 3.33998 40.8346 1.77406C40.5995 0.753103 40.0861 -0.0172847 39.6519 0.000294902C39.5182 0.00585807 39.0587 0.197454 38.6311 0.426211ZM22.695 11.6175C22.8643 18.0401 23.0112 18.3314 27.1787 20.5084C30.3849 22.1831 31.4857 23.1166 32.2149 24.7784C33.3109 27.2765 32.6904 30.3291 30.6317 32.566C29.5055 33.7899 26.7823 35.5717 24.2407 36.7477C22.0141 37.778 22.2373 37.8145 17.8101 35.6996C14.2411 33.9946 11.9816 32.463 10.1396 30.4994C7.71365 27.9138 6.85783 25.7008 6.86383 22.0296C6.86828 19.2262 7.2493 17.784 8.46815 15.9541C9.01958 15.1266 10.0485 13.1238 10.7545 11.5036C12.2778 8.00904 12.5495 7.55642 13.1233 7.55642C13.4815 7.55642 13.5461 7.68504 13.4866 8.27963C13.4217 8.92874 13.4713 8.9995 13.9698 8.9708C14.2753 8.95322 15.2113 8.67528 16.05 8.35351C17.801 7.68125 19.2802 7.39687 21.2196 7.35993L22.5819 7.33389L22.695 11.6175ZM14.5042 14.9232C14.1904 15.2703 14.0809 15.7254 14.0809 16.68C14.0809 18.1296 14.5555 18.9053 15.4426 18.9053C16.567 18.9053 17.0811 16.1945 16.1753 15.0411C15.6195 14.3333 15.0722 14.2945 14.5042 14.9232ZM30.7661 14.8475C31.1943 15.1339 31.5215 15.9588 31.5215 16.7519C31.5215 18.5633 29.7772 19.0878 29.316 17.415C28.8768 15.8211 29.7939 14.1973 30.7661 14.8475ZM20.2647 20.2493C19.1942 20.5791 18.3415 21.7138 18.4873 22.6141C18.6588 23.672 19.256 24.3717 20.5873 25.0733C21.6297 25.6229 21.7461 25.7547 21.6261 26.2487C21.1891 28.0458 18.2827 29.0663 16.2938 28.121C15.3795 27.6864 14.9587 27.0685 14.7061 25.7896C14.3673 24.073 13.0096 24.4542 13.2422 26.2006C13.553 28.5362 15.4366 30.0172 18.1085 30.0267C19.6668 30.0323 20.739 29.6498 21.8141 28.7043L22.5655 28.0436L23.1933 28.6998C24.6548 30.2277 27.5668 30.4809 29.3564 29.2354C30.8972 28.1633 31.8439 25.6432 30.9767 24.9224C30.3347 24.3886 29.863 24.7404 29.7355 25.8481C29.6006 27.0188 29.0823 27.7245 28.0294 28.1709C26.1316 28.9755 23.553 27.8794 23.2631 26.1452C23.2089 25.8203 23.4191 25.5998 24.0787 25.2889C26.0292 24.3701 26.953 22.8396 26.3093 21.593C26.1171 21.2205 25.6364 20.746 25.2413 20.5389C24.3993 20.0974 21.336 19.9191 20.2647 20.2493ZM43.019 20.1815C42.1405 20.2509 41.9637 20.3392 41.9637 20.7086C41.9637 21.121 42.0623 21.1419 43.3522 21.001C44.1161 20.9178 44.8115 20.8094 44.8977 20.7605C45.1867 20.5963 44.809 20.0175 44.4393 20.058C44.2385 20.08 43.5995 20.1356 43.019 20.1815Z" fill="black"/>
</svg>
